# xmcd CD database file
#
# Track frame offsets:
#	150
#	11819
#	23875
#	35777
#	47132
#	67468
#	92741
#	101279
#	114551
#	127150
#	141671
#	155131
#	164293
#	176494
#	192960
#	206075
#	216760
#	227737
#	243161
#	254615
#
# Disc length: 3556 seconds
#
# Revision: 1
# Processed by: cddbd v1.5.2PL0 Copyright (c) Steve Scherf et al.
# Submitted via: CDex 1.70beta2
#
DISCID=340de214
DTITLE=Various Artist - Love Songs Vol 6
DYEAR=1900
DGENRE=Country
TTITLE0=The Cascades - Rhythm Of The Rain
TTITLE1=Skeeter Davis - The End Of The World
TTITLE2=Andy Williams - A Time For Us
TTITLE3=Bobby Vee - More Than I Can Say
TTITLE4=The Animals - The House Of The Raising Sun
TTITLE5=Julie Andrews - Do-Re-Mi
TTITLE6=Christopher Plummer - Edelweiss
TTITLE7=The Brothers Four - Try To Remember
TTITLE8=Debbie Reynolds - Tammy
TTITLE9=Andy Williams - Love Story
TTITLE10=The Singing Nun. - Dominique
TTITLE11=The Everly Brothers - Crying In The Rain
TTITLE12=Johnny Ray - Just Walking In The Rain
TTITLE13=Mary Magdalene - I Don't Know How To Love Him
TTITLE14=Shep and The Limelites - Daddy's Home
TTITLE15=Paul Anka - Diana
TTITLE16=Neil Sedaka - One Way Ticket
TTITLE17=Smith - Babby It's You
TTITLE18=Bobby Darlin - Dream Lover
TTITLE19=Bobby Vinton - Roses Are Red
EXTD=
EXTT0=
EXTT1=
EXTT2=
EXTT3=
EXTT4=
EXTT5=
EXTT6=
EXTT7=
EXTT8=
EXTT9=
EXTT10=
EXTT11=
EXTT12=
EXTT13=
EXTT14=
EXTT15=
EXTT16=
EXTT17=
EXTT18=
EXTT19=
PLAYORDER=
